<svg width="40" height="40" viewBox="0 0 40 40" fill="none" xmlns="http://www.w3.org/2000/svg">
<g clip-path="url(#clip0_2421_978)">
<path d="M5.97279 18.9753C5.94546 19.0347 5.91746 19.0907 5.89012 19.1513C5.35194 20.3594 4.47111 21.383 3.35679 22.0953L1.51479 23.2667C1.04663 23.5653 0.739103 24.0601 0.678592 24.6121C0.61808 25.1641 0.811106 25.7137 1.20346 26.1067L9.23479 34.1387C9.57784 34.4809 10.0429 34.6728 10.5275 34.672C10.5962 34.674 10.6649 34.6722 10.7335 34.6667C11.2861 34.6072 11.7813 34.2986 12.0781 33.8287C12.9296 32.5219 14.1963 31.54 15.6741 31.0413C16.232 30.8428 16.7662 30.583 17.2668 30.2667L18.8915 31.8907C19.5868 32.5889 20.6886 32.6725 21.4815 32.0873L29.1955 39.8047C29.457 40.0573 29.8729 40.0537 30.13 39.7966C30.3872 39.5394 30.3908 39.1236 30.1381 38.862L22.4428 31.1667L25.1668 28.4427L31.3621 34.638C31.6237 34.8907 32.0395 34.887 32.2967 34.6299C32.5538 34.3727 32.5574 33.9569 32.3048 33.6953L26.1095 27.5L28.5001 25.1093L31.0288 27.638C31.2904 27.8907 31.7062 27.887 31.9633 27.6299C32.2205 27.3727 32.2241 26.9569 31.9715 26.6953L29.4428 24.1667L31.8335 21.776L37.0288 26.9713C37.2904 27.224 37.7062 27.2204 37.9633 26.9632C38.2205 26.7061 38.2241 26.2903 37.9715 26.0287L32.7548 20.812C33.34 20.0192 33.2563 18.9174 32.5581 18.222L28.6128 14.2767C28.6515 14.1123 28.6718 13.9442 28.6735 13.7753C28.6756 13.1779 28.4384 12.6046 28.0148 12.1833C27.7884 11.9602 27.5151 11.7903 27.2148 11.686L28.0148 10.886C28.893 10.0063 28.893 8.58167 28.0148 7.702C27.1244 6.85001 25.7211 6.85001 24.8308 7.702L24.4128 8.12C24.1884 7.51671 23.7141 7.03995 23.1119 6.81249C22.5098 6.58503 21.8387 6.62909 21.2715 6.93334L14.9281 0.591335C14.1378 -0.17107 12.8858 -0.17107 12.0955 0.591335L1.25812 11.4253C0.879272 11.7993 0.666016 12.3094 0.666016 12.8417C0.666016 13.374 0.879272 13.8841 1.25812 14.258L5.97279 18.9753ZM31.8101 19.6367C31.8104 19.8136 31.7404 19.9834 31.6155 20.1087L20.7755 30.9487C20.511 31.1999 20.096 31.1999 19.8315 30.9487L18.3575 29.4747C18.5448 29.3153 18.6621 29.2027 18.6761 29.1887L24.2761 23.5853C24.718 23.1428 24.9561 22.5365 24.9334 21.9116C24.9106 21.2866 24.6291 20.6992 24.1561 20.29C23.9565 20.1192 23.7271 19.9865 23.4795 19.8987L27.9128 15.466L31.6121 19.1653C31.7386 19.2896 31.8099 19.4594 31.8101 19.6367ZM22.9635 8.27C23.3204 8.62931 23.3204 9.20936 22.9635 9.56867L17.7335 14.8C17.5602 14.9674 17.4907 15.2153 17.5517 15.4483C17.6127 15.6814 17.7947 15.8635 18.0278 15.9245C18.2609 15.9855 18.5087 15.916 18.6761 15.7427L23.9055 10.5133L25.7721 8.64667C26.1352 8.29889 26.7078 8.29889 27.0708 8.64667C27.4281 9.00583 27.4281 9.58618 27.0708 9.94534L19.9748 17.0393C19.8015 17.2067 19.732 17.4546 19.793 17.6877C19.854 17.9208 20.036 18.1028 20.2691 18.1638C20.5022 18.2248 20.7501 18.1553 20.9175 17.982L25.7735 13.126C26.1364 12.7779 26.7092 12.7779 27.0721 13.126C27.4294 13.4852 27.4294 14.0655 27.0721 14.4247L21.4721 20.028C21.4273 20.0772 21.3902 20.133 21.3621 20.1933C21.2456 20.2741 21.1363 20.3649 21.0355 20.4647L18.1068 23.3893C17.8461 23.6496 17.8458 24.072 18.1061 24.3327C18.3664 24.5933 18.7888 24.5936 19.0495 24.3333L21.9748 21.408C22.32 21.042 22.8855 20.9945 23.2868 21.298C23.4797 21.4651 23.5947 21.7048 23.6041 21.9598C23.6136 22.2149 23.5168 22.4624 23.3368 22.6433L17.7368 28.2433C17.0136 28.9151 16.164 29.4363 15.2375 29.7767C13.4748 30.3742 11.965 31.5486 10.9521 33.11C10.8709 33.2374 10.7362 33.321 10.5861 33.3374C10.4359 33.3539 10.2864 33.3014 10.1795 33.1947L2.14612 25.164C2.03914 25.0571 1.98647 24.9074 2.00293 24.757C2.01939 24.6067 2.10321 24.4719 2.23079 24.3907L4.07079 23.22C5.40554 22.3683 6.46113 21.1437 7.10679 19.698C7.63828 18.3837 8.39295 17.1712 9.33746 16.114L16.7455 8.70667C17.0902 8.34013 17.6558 8.29267 18.0568 8.59667C18.2497 8.76374 18.3647 9.00342 18.3741 9.25847C18.3836 9.51352 18.2868 9.76107 18.1068 9.942L15.4921 12.5567C15.3188 12.7241 15.2493 12.9719 15.3103 13.205C15.3713 13.4381 15.5534 13.6201 15.7865 13.6811C16.0195 13.7421 16.2674 13.6726 16.4348 13.4993L19.0495 10.8847L21.6668 8.27C22.0296 7.9235 22.6007 7.9235 22.9635 8.27ZM2.20012 12.3713L13.0415 1.528C13.3035 1.27253 13.7219 1.27401 13.9821 1.53134L20.2488 7.798L19.5501 8.496C19.4216 8.1461 19.2078 7.83379 18.9281 7.58734C17.9999 6.82065 16.6381 6.89701 15.8015 7.76267L8.39479 15.1713C7.67977 15.9308 7.07558 16.7875 6.60012 17.716L2.19546 13.316C2.06812 13.1915 1.99673 13.0207 1.99761 12.8427C1.99849 12.6646 2.07156 12.4945 2.20012 12.3713Z" fill="#0181F5"/>
<path d="M37.195 33.4711L38.195 34.4711C38.4565 34.7238 38.8723 34.7202 39.1295 34.463C39.3867 34.2058 39.3903 33.79 39.1376 33.5285L38.1376 32.5285C37.876 32.2758 37.4602 32.2794 37.2031 32.5366C36.9459 32.7937 36.9423 33.2095 37.195 33.4711Z" fill="#0181F5"/>
<path d="M35.195 31.4711C35.4565 31.7238 35.8723 31.7202 36.1295 31.463C36.3867 31.2058 36.3903 30.79 36.1376 30.5285L35.1376 29.5285C34.876 29.2758 34.4602 29.2794 34.2031 29.5366C33.9459 29.7937 33.9423 30.2095 34.195 30.4711L35.195 31.4711Z" fill="#0181F5"/>
<path d="M34.1952 34.4711C34.4555 34.7314 34.8775 34.7314 35.1379 34.4711L36.1379 33.4711C36.3905 33.2095 36.3869 32.7937 36.1297 32.5366C35.8726 32.2794 35.4568 32.2758 35.1952 32.5285L34.1952 33.5285C33.9349 33.7888 33.9349 34.2108 34.1952 34.4711Z" fill="#0181F5"/>
<path d="M37.1952 31.4711C37.4555 31.7314 37.8775 31.7314 38.1379 31.4711L39.1379 30.4711C39.3905 30.2095 39.3869 29.7937 39.1297 29.5366C38.8726 29.2794 38.4568 29.2758 38.1952 29.5285L37.1952 30.5285C36.9349 30.7888 36.9349 31.2108 37.1952 31.4711Z" fill="#0181F5"/>
<path d="M34.6667 11.506C35.0349 11.506 35.3333 11.2075 35.3333 10.8394V9.50602C35.3333 9.13783 35.0349 8.83936 34.6667 8.83936C34.2985 8.83936 34 9.13783 34 9.50602V10.8394C34 11.2075 34.2985 11.506 34.6667 11.506Z" fill="#0181F5"/>
<path d="M35.3333 14.8394V13.506C35.3333 13.1378 35.0349 12.8394 34.6667 12.8394C34.2985 12.8394 34 13.1378 34 13.506V14.8394C34 15.2075 34.2985 15.506 34.6667 15.506C35.0349 15.506 35.3333 15.2075 35.3333 14.8394Z" fill="#0181F5"/>
<path d="M36.0007 12.8392H37.334C37.7022 12.8392 38.0007 12.5407 38.0007 12.1725C38.0007 11.8043 37.7022 11.5059 37.334 11.5059H36.0007C35.6325 11.5059 35.334 11.8043 35.334 12.1725C35.334 12.5407 35.6325 12.8392 36.0007 12.8392Z" fill="#0181F5"/>
<path d="M32.0007 12.8392H33.334C33.7022 12.8392 34.0007 12.5407 34.0007 12.1725C34.0007 11.8043 33.7022 11.5059 33.334 11.5059H32.0007C31.6325 11.5059 31.334 11.8043 31.334 12.1725C31.334 12.5407 31.6325 12.8392 32.0007 12.8392Z" fill="#0181F5"/>
</g>
<defs>
<clipPath id="clip0_2421_978">
<rect width="40" height="40" fill="white"/>
</clipPath>
</defs>
</svg>
