<svg width="40" height="40" viewBox="0 0 40 40" fill="none" xmlns="http://www.w3.org/2000/svg">
<g clip-path="url(#clip0_2421_991)">
<path d="M14.6164 36.2207C14.289 36.2207 13.989 36.4327 13.8798 36.7414C13.7693 37.0535 13.8728 37.4102 14.1323 37.6153C14.3893 37.8184 14.7573 37.8378 15.034 37.6625C15.3035 37.4917 15.4441 37.1654 15.3834 36.8522C15.313 36.4897 14.9853 36.2207 14.6164 36.2207Z" fill="#0181F5"/>
<path d="M28.9466 28.4598C31.5084 25.8959 31.5084 21.7241 28.9466 19.1602C27.7053 17.918 26.0549 17.2339 24.2996 17.2339C22.5442 17.2339 20.8939 17.918 19.6528 19.1601C17.091 21.7241 17.091 25.8959 19.6528 28.4597C20.894 29.702 22.5443 30.3861 24.2996 30.3861C26.0549 30.3861 27.7053 29.702 28.9466 28.4598ZM20.7581 20.2646C21.7041 19.3178 22.9617 18.7965 24.2996 18.7965C25.6374 18.7965 26.8951 19.3179 27.8411 20.2647C29.7945 22.2196 29.7945 25.4005 27.8411 27.3553C26.8951 28.3022 25.6373 28.8236 24.2996 28.8236C22.9618 28.8236 21.704 28.3022 20.7581 27.3553C18.8047 25.4004 18.8048 22.2195 20.7581 20.2646Z" fill="#0181F5"/>
<path d="M39.1258 34.4144L35.3466 30.632C35.2 30.4854 35.0012 30.403 34.7939 30.403C34.5867 30.403 34.3878 30.4854 34.2412 30.632L33.2306 31.6436L32.117 30.5287C35.5947 26.4818 35.4178 20.353 31.586 16.5181C30.09 15.0209 28.2151 14.0407 26.1776 13.6673C22.0972 6.67683 15.4105 0.909559 15.125 0.664939C14.8325 0.414382 14.4011 0.41446 14.1085 0.664939C13.9652 0.787679 10.5576 3.72053 7.0949 7.94344C5.05169 10.4353 3.42108 12.8558 2.24822 15.1379C0.756437 18.0406 0 20.7381 0 23.1555C0 29.8021 4.4812 35.6208 10.8974 37.3056C10.964 37.323 11.0307 37.3314 11.0964 37.3314C11.4429 37.3314 11.7594 37.0992 11.8515 36.7483C11.9611 36.3309 11.7117 35.9038 11.2943 35.7942C5.56445 34.2897 1.56256 29.0924 1.56256 23.1555C1.56256 14.6563 12.1515 4.54322 14.6172 2.30423C16.1679 3.70991 20.9291 8.22314 24.2472 13.4977C21.5141 13.5112 18.9467 14.5826 17.0128 16.5182C12.9955 20.5388 12.9955 27.0809 17.0128 31.1016C18.4226 32.5126 20.169 33.4643 22.0709 33.8818C20.8198 34.7528 19.4192 35.4041 17.9519 35.791C17.5347 35.901 17.2857 36.3284 17.3956 36.7456C17.4881 37.0961 17.8044 37.3279 18.1506 37.3279C18.2165 37.3279 18.2836 37.3196 18.3504 37.3019C20.5355 36.7258 22.588 35.6268 24.2902 34.1221H24.2995C26.7899 34.1221 29.1453 33.244 31.0128 31.6342L32.1262 32.7488L31.1146 33.7613C30.8098 34.0664 30.8098 34.5607 31.1146 34.8658L34.8913 38.6456C35.4567 39.2114 36.2086 39.5231 37.0086 39.5231C37.8086 39.5231 38.5605 39.2114 39.1259 38.6456C40.2914 37.479 40.2914 35.5809 39.1258 34.4144ZM18.1182 17.6225C19.7693 15.9701 21.9644 15.06 24.2994 15.06C26.6343 15.06 28.8295 15.9701 30.4806 17.6225C33.8895 21.0341 33.8895 26.5853 30.4806 29.997C28.8295 31.6495 26.6343 32.5595 24.2994 32.5595C21.9644 32.5595 19.7693 31.6495 18.1182 29.997C14.7092 26.5854 14.7092 21.0342 18.1182 17.6225ZM38.0205 37.5411C37.7502 37.8115 37.3908 37.9605 37.0086 37.9605C36.6262 37.9605 36.2669 37.8115 35.9966 37.5411L32.7717 34.3136L34.794 32.2896L38.0205 35.5188C38.5775 36.0764 38.5775 36.9835 38.0205 37.5411Z" fill="#0181F5"/>
<path d="M24.8917 25.5885L26.5309 23.3239C26.7838 22.9743 26.7055 22.4859 26.3561 22.2329C26.0066 21.98 25.5182 22.0581 25.2651 22.4077L24.1508 23.9472L23.6216 23.442C23.3095 23.1441 22.815 23.1554 22.5169 23.4677C22.219 23.7798 22.2305 24.2744 22.5426 24.5723L23.7193 25.6956C23.8653 25.8349 24.0587 25.9117 24.2587 25.9117C24.2823 25.9117 24.306 25.9106 24.3297 25.9085C24.5545 25.888 24.7594 25.7713 24.8917 25.5885Z" fill="#0181F5"/>
</g>
<defs>
<clipPath id="clip0_2421_991">
<rect width="40" height="40" fill="white"/>
</clipPath>
</defs>
</svg>
