<svg width="44" height="40" viewBox="0 0 44 40" fill="none" xmlns="http://www.w3.org/2000/svg">
<path d="M31.9798 14.5948C32.0891 14.8562 32.3452 15.0138 32.6154 15.0138C32.7031 15.0138 32.7921 14.9972 32.878 14.9623C33.229 14.8192 33.3957 14.4226 33.2503 14.0765C32.5054 12.3016 31.4284 10.7118 30.0486 9.35146C27.2588 6.59996 23.5494 5.08472 19.6042 5.08472H16.8439V2.03389C16.8439 0.9122 15.9189 0 14.7814 0C13.644 0 12.7189 0.9122 12.7189 2.03389C12.7189 2.40812 13.0269 2.71184 13.4064 2.71184C13.7859 2.71184 14.0939 2.40812 14.0939 2.03389C14.0939 1.65999 14.4023 1.35593 14.7814 1.35593C15.1606 1.35593 15.4689 1.65999 15.4689 2.03389V4.06777H9.28147V2.03389C9.28147 0.9122 8.35644 0 7.21898 0C6.08152 0 5.15649 0.9122 5.15649 2.03389C5.15649 2.40812 5.46449 2.71184 5.84398 2.71184C6.22347 2.71184 6.53147 2.40812 6.53147 2.03389C6.53147 1.65999 6.83981 1.35593 7.21897 1.35593C7.59812 1.35593 7.90646 1.65999 7.90646 2.03389V5.0847H7.36334C4.15686 5.0847 1.52993 7.49315 1.38315 10.5677C1.30615 12.1613 1.87712 13.6724 2.99017 14.8236C4.10391 15.9755 5.60574 16.61 7.21929 16.61C9.68328 16.61 11.688 18.587 11.688 21.0168C11.688 23.4466 9.68328 25.4235 7.21929 25.4235H6.87554C4.99386 25.4235 3.23766 26.1591 1.93005 27.4944C0.62209 28.8303 -0.0616316 30.5906 0.00436837 32.4509C0.134998 36.0526 3.28406 38.9827 7.02302 38.9827H17.5417C17.9212 38.9827 18.2292 38.679 18.2292 38.3048C18.2292 37.9305 17.9212 37.6268 17.5417 37.6268H7.02304C4.01525 37.6268 1.48321 35.2831 1.37836 32.4031C1.32542 30.914 1.87233 29.5052 2.9187 28.4364C3.96473 27.3679 5.36996 26.7794 6.87524 26.7794H7.21899C10.4413 26.7794 13.0627 24.1944 13.0627 21.0168C13.0627 17.8392 10.4413 15.2541 7.21899 15.2541C5.98562 15.2541 4.83682 14.7687 3.98501 13.888C3.13388 13.0077 2.69767 11.8514 2.75645 10.6321C2.86679 8.32096 4.93341 6.44063 7.36336 6.44063H7.90648V10.8474C7.90648 11.2216 8.21448 11.5253 8.59398 11.5253C8.97347 11.5253 9.28147 11.2216 9.28147 10.8474V8.81349H15.4689V10.8474C15.4689 11.2216 15.7769 11.5253 16.1564 11.5253C16.5359 11.5253 16.8439 11.2216 16.8439 10.8474V6.44063H19.6042C23.1823 6.44063 26.5462 7.81486 29.0765 10.3098C30.3274 11.5436 31.3044 12.9853 31.9798 14.5948ZM9.28147 7.45757V5.42369H15.4689V7.45757H9.28147Z" fill="#0181F5"/>
<path d="M27.4999 18.9829C27.8794 18.9829 28.1874 18.6792 28.1874 18.3049C28.1874 17.9307 27.8794 17.627 27.4999 17.627C26.952 17.627 26.7097 17.4222 26.3429 17.1121C25.8995 16.7375 25.3474 16.2711 24.2911 16.2711C23.2347 16.2711 22.6827 16.7375 22.2392 17.1121C21.8721 17.4222 21.6298 17.627 21.0818 17.627C20.5346 17.627 20.2926 17.4222 19.9258 17.1121C19.4827 16.7375 18.931 16.2711 17.875 16.2711C17.4955 16.2711 17.1875 16.5748 17.1875 16.949C17.1875 17.3232 17.4955 17.627 17.875 17.627C18.4222 17.627 18.6642 17.8317 19.031 18.1419C19.4741 18.5165 20.0258 18.9829 21.0818 18.9829C22.1385 18.9829 22.6902 18.5164 23.1336 18.1419C23.5004 17.8321 23.7428 17.627 24.2907 17.627C24.8386 17.627 25.081 17.8317 25.4477 18.1419C25.8915 18.5165 26.4433 18.9829 27.4999 18.9829Z" fill="#0181F5"/>
<path d="M21.5427 25.0846C22.0906 25.0846 22.3329 25.2893 22.6997 25.5995C23.1431 25.9741 23.6952 26.4405 24.7515 26.4405C25.131 26.4405 25.439 26.1368 25.439 25.7625C25.439 25.3883 25.131 25.0846 24.7515 25.0846C24.2036 25.0846 23.9613 24.8798 23.5945 24.5697C23.1511 24.1951 22.599 23.7286 21.5427 23.7286C20.4863 23.7286 19.9343 24.1951 19.4908 24.5697C19.124 24.8798 18.8817 25.0846 18.3338 25.0846C17.7865 25.0846 17.5445 24.8798 17.1777 24.5697C16.7347 24.1951 16.1829 23.7286 15.1269 23.7286C14.7475 23.7286 14.4395 24.0324 14.4395 24.4066C14.4395 24.7808 14.7475 25.0846 15.1269 25.0846C15.6742 25.0846 15.9162 25.2893 16.283 25.5995C16.7261 25.974 17.2778 26.4405 18.3338 26.4405C19.3904 26.4405 19.9422 25.974 20.3856 25.5995C20.7524 25.2893 20.9947 25.0846 21.5427 25.0846Z" fill="#0181F5"/>
<path d="M14.6554 31.3493C14.2119 30.9747 13.6599 30.5082 12.6035 30.5082C11.5472 30.5082 10.9951 30.9747 10.5517 31.3493C10.1846 31.6594 9.94225 31.8642 9.39431 31.8642C8.84706 31.8642 8.60506 31.6594 8.23829 31.3493C7.7952 30.9747 7.24349 30.5082 6.18749 30.5082C5.808 30.5082 5.5 30.812 5.5 31.1862C5.5 31.5604 5.808 31.8642 6.18749 31.8642C6.73474 31.8642 6.97674 32.0689 7.34351 32.3791C7.7866 32.7536 8.33831 33.2201 9.39431 33.2201C10.451 33.2201 11.0027 32.7536 11.4461 32.3791C11.8129 32.0692 12.0553 31.8642 12.6032 31.8642C13.1511 31.8642 13.3935 32.0689 13.7603 32.3791C14.2037 32.7536 14.7557 33.2201 15.8121 33.2201C16.1916 33.2201 16.4996 32.9164 16.4996 32.5421C16.4996 32.1679 16.1916 31.8642 15.8121 31.8642C15.2645 31.8642 15.0218 31.6594 14.6554 31.3493Z" fill="#0181F5"/>
<path d="M43.5757 19.7124C43.3185 19.6073 43.0229 19.6653 42.8263 19.8595L39.3297 23.3073C39.0616 23.5717 38.6257 23.5717 38.3576 23.3073L36.1772 21.1571C36.0472 21.029 35.9757 20.8588 35.9757 20.6778C35.9757 20.4968 36.0472 20.3266 36.1772 20.1985L39.6734 16.7504C39.8701 16.5565 39.9288 16.2649 39.8226 16.0114C39.7161 15.7582 39.4655 15.5931 39.1874 15.5931H34.257C33.706 15.5931 33.1883 15.8046 32.7985 16.1887L30.1664 18.7842C29.7769 19.1687 29.5624 19.6791 29.5624 20.2225V23.8452C29.5624 24.0262 29.4909 24.1967 29.361 24.3245L20.4236 33.138C19.6666 33.8845 19.25 34.8767 19.25 35.9322C19.25 36.9878 19.6666 37.98 20.4236 38.7261L20.5415 38.8427C21.2984 39.5891 22.3045 40 23.375 40C24.4454 40 25.4516 39.5891 26.2085 38.8427L35.1459 30.0292C35.2759 29.9011 35.4484 29.8306 35.632 29.8306H39.3056C39.8567 29.8306 40.3743 29.6191 40.7641 29.235L43.3962 26.6394C43.7857 26.255 44.0002 25.7445 44.0002 25.2011V20.3388C44.0002 20.0646 43.8324 19.8175 43.5757 19.7124ZM42.6252 25.2008C42.6252 25.3818 42.5537 25.5523 42.4238 25.6801L39.7917 28.2757C39.6617 28.4038 39.4892 28.4743 39.3056 28.4743H35.632C35.081 28.4743 34.5633 28.6859 34.1735 29.0699L25.236 37.8834C24.739 38.3736 24.0779 38.6438 23.375 38.6438C22.672 38.6438 22.011 38.3739 21.5139 37.8838L21.396 37.7672C20.899 37.277 20.625 36.6251 20.625 35.9319C20.625 35.2387 20.8986 34.5868 21.396 34.0967L30.3335 25.2832C30.7229 24.8988 30.9374 24.3883 30.9374 23.8449V20.2222C30.9374 20.0412 31.0089 19.8707 31.1389 19.7429L33.7709 17.1473C33.9009 17.0192 34.0734 16.9487 34.257 16.9487H37.5277L35.2047 19.2392C34.8152 19.6233 34.6007 20.1341 34.6007 20.6775C34.6007 21.2209 34.8156 21.7314 35.2047 22.1158L37.3851 24.2659C38.1891 25.0588 39.4978 25.0588 40.3018 24.2659L42.6245 21.9751V25.2008H42.6252V25.2008Z" fill="#0181F5"/>
</svg>
