<svg width="55" height="55" viewBox="0 0 55 55" fill="none" xmlns="http://www.w3.org/2000/svg">
<path d="M20.625 39.5313C16.8857 39.5313 13.2304 38.4224 10.1213 36.345C7.01214 34.2675 4.58888 31.3148 3.15791 27.8601C1.72694 24.4055 1.35253 20.604 2.08204 16.9366C2.81154 13.2691 4.61219 9.90036 7.25627 7.25627C9.90036 4.61219 13.2691 2.81154 16.9366 2.08204C20.604 1.35253 24.4055 1.72694 27.8601 3.15791C31.3148 4.58888 34.2675 7.01214 36.345 10.1213C38.4224 13.2304 39.5313 16.8857 39.5313 20.625C39.5256 25.6375 37.5318 30.4431 33.9875 33.9875C30.4431 37.5318 25.6375 39.5256 20.625 39.5313ZM20.625 3.43751C17.2256 3.43751 13.9026 4.44554 11.0761 6.33413C8.24968 8.22271 6.04671 10.907 4.74583 14.0476C3.44495 17.1882 3.10458 20.6441 3.76776 23.9781C4.43095 27.3122 6.0679 30.3747 8.47161 32.7784C10.8753 35.1821 13.9378 36.8191 17.2719 37.4823C20.6059 38.1454 24.0618 37.8051 27.2025 36.5042C30.343 35.2033 33.0273 33.0003 34.9159 30.1739C36.8045 27.3474 37.8125 24.0244 37.8125 20.625C37.8073 16.0682 35.9948 11.6995 32.7726 8.47739C29.5505 5.25524 25.1818 3.44274 20.625 3.43751Z" fill="#0181F5"/>
<path d="M42.968 43.8281C42.7401 43.828 42.5215 43.7374 42.3604 43.5763L32.9073 34.1231C32.7507 33.9611 32.6641 33.744 32.666 33.5187C32.668 33.2933 32.7584 33.0778 32.9177 32.9185C33.0771 32.7591 33.2926 32.6687 33.5179 32.6668C33.7432 32.6648 33.9603 32.7514 34.1224 32.908L43.5755 42.3611C43.6957 42.4813 43.7775 42.6344 43.8106 42.8011C43.8438 42.9678 43.8268 43.1405 43.7617 43.2975C43.6967 43.4545 43.5866 43.5887 43.4453 43.6832C43.304 43.7776 43.1379 43.828 42.968 43.8281Z" fill="#0181F5"/>
<path d="M49.8004 53.2365C49.3491 53.2373 48.902 53.149 48.4849 52.9764C48.0678 52.8039 47.6889 52.5505 47.3701 52.231L40.9059 45.7676C40.7448 45.6065 40.6543 45.3879 40.6543 45.1601C40.6543 44.9322 40.7448 44.7136 40.9059 44.5525L44.5522 40.9062C44.7134 40.745 44.9319 40.6545 45.1598 40.6545C45.3877 40.6545 45.6062 40.745 45.7674 40.9062L52.2308 47.3695C52.8752 48.0141 53.2372 48.8883 53.2372 49.7998C53.2372 50.7113 52.8752 51.5855 52.2308 52.2301C51.912 52.5498 51.5332 52.8032 51.1161 52.9759C50.699 53.1487 50.2519 53.2372 49.8004 53.2365ZM42.7295 45.1601L48.5853 51.0158C48.7438 51.18 48.9335 51.3109 49.1432 51.401C49.3529 51.4911 49.5784 51.5385 49.8066 51.5405C50.0348 51.5425 50.2612 51.499 50.4724 51.4126C50.6836 51.3261 50.8755 51.1985 51.0369 51.0371C51.1983 50.8758 51.3259 50.6839 51.4123 50.4726C51.4987 50.2614 51.5422 50.0351 51.5402 49.8069C51.5383 49.5787 51.4909 49.3531 51.4008 49.1434C51.3107 48.9337 51.1798 48.7441 51.0156 48.5855L45.1598 42.7297L42.7295 45.1601Z" fill="#0181F5"/>
<path d="M20.625 31.7969C18.5745 31.7944 16.6087 30.9787 15.1587 29.5288C13.7088 28.0788 12.8931 26.113 12.8906 24.0625C12.8906 20.5167 17.9137 9.45312 20.625 9.45312C23.3363 9.45312 28.3594 20.5167 28.3594 24.0625C28.3569 26.113 27.5412 28.0788 26.0913 29.5288C24.6413 30.9787 22.6755 31.7944 20.625 31.7969ZM20.625 11.202C19.1237 12.0407 14.6094 20.6551 14.6094 24.0625C14.6094 25.6579 15.2432 27.188 16.3713 28.3162C17.4995 29.4443 19.0296 30.0781 20.625 30.0781C22.2204 30.0781 23.7505 29.4443 24.8787 28.3162C26.0068 27.188 26.6406 25.6579 26.6406 24.0625C26.6406 20.6542 22.1263 12.0407 20.625 11.202Z" fill="#0181F5"/>
<path d="M20.625 28.3594C20.3971 28.3594 20.1785 28.2688 20.0173 28.1077C19.8562 27.9465 19.7656 27.7279 19.7656 27.5C19.7656 27.2721 19.8562 27.0535 20.0173 26.8923C20.1785 26.7312 20.3971 26.6406 20.625 26.6406C21.3088 26.6406 21.9645 26.369 22.448 25.8855C22.9315 25.402 23.2031 24.7463 23.2031 24.0625C23.2031 23.8346 23.2937 23.616 23.4548 23.4548C23.616 23.2937 23.8346 23.2031 24.0625 23.2031C24.2904 23.2031 24.509 23.2937 24.6702 23.4548C24.8313 23.616 24.9219 23.8346 24.9219 24.0625C24.9205 25.2017 24.4674 26.2938 23.6618 27.0993C22.8563 27.9049 21.7642 28.358 20.625 28.3594Z" fill="#0181F5"/>
</svg>
