<svg width="36" height="40" viewBox="0 0 36 40" fill="none" xmlns="http://www.w3.org/2000/svg">
<path d="M3.40118 34.7879C3.70745 36.1212 4.93253 37.0909 6.34137 37.0909H6.77015V39.394C6.77015 39.7576 7.01516 40 7.38269 40H8.97529C9.2203 40 9.40407 39.8788 9.52657 39.6364L10.6904 37.0909H25.3301L26.4939 39.6364C26.6164 39.8788 26.8002 40 27.0452 40H28.6378C29.0053 40 29.2503 39.7576 29.2503 39.394V37.0909H29.6791C31.0879 37.0909 32.313 36.1212 32.6193 34.7879L35.9883 20.6061C36.0495 20.303 35.8658 19.9394 35.5595 19.8788C35.2532 19.8182 34.8857 20 34.8244 20.303L34.5182 21.697C33.3543 22.303 32.068 22.9091 30.0466 21.8182C28.1478 20.7879 26.4327 20.9091 24.7788 21.8182C23.4312 22.5455 22.1449 22.6667 20.6135 21.8182C18.8984 20.9091 17.1833 20.7879 15.3457 21.8182C13.9981 22.5455 12.7118 22.6061 11.2417 21.8182C9.58783 20.9091 7.81146 20.7879 5.97385 21.8182C4.07497 22.8485 2.78864 22.303 1.56356 21.697L1.19604 20.3636C1.13479 20.0606 0.767264 19.8182 0.460994 19.9394C0.154725 20 -0.0902907 20.3636 0.0322172 20.6667L3.40118 34.7879ZM8.60777 38.7879H7.99523V37.0909H9.34281L8.60777 38.7879ZM28.0865 38.7879H27.474L26.6777 37.0909H28.0253V38.7879H28.0865ZM31.5167 34.5455C31.333 35.3333 30.5979 35.9394 29.7404 35.9394H6.34137C5.48381 35.9394 4.74877 35.394 4.56501 34.5455L3.52369 30.1212C5.05504 30.2424 5.91259 29.7576 6.52513 29.4546C8.05648 28.6667 9.28156 28.7273 10.6291 29.4546C12.528 30.4849 14.2431 30.3636 15.897 29.4546C17.4283 28.6667 18.6534 28.7273 20.001 29.4546C21.7774 30.4243 23.5537 30.4243 25.3301 29.4546C26.6777 28.7273 27.9027 28.6667 29.4341 29.4546C30.2916 29.8788 31.0879 30.2424 32.4968 30.1212L31.5167 34.5455ZM32.8643 28.8485C31.4555 29.0303 30.7204 28.6667 30.1079 28.3636C28.209 27.3333 26.4939 27.4546 24.84 28.3636C23.4925 29.0909 22.2061 29.2121 20.6748 28.3636C18.9597 27.4546 17.2446 27.3333 15.4069 28.3636C14.0594 29.0909 12.773 29.1515 11.3029 28.3636C9.64908 27.4546 7.87272 27.3333 6.0351 28.3636C5.42256 28.6667 4.74877 29.0909 3.33993 28.8485L2.8499 26.7273C4.31999 27.0303 5.54507 26.7273 6.64764 26.1818C8.17899 25.394 9.46532 25.4546 10.7517 26.1818C12.5893 27.1515 14.3044 27.0909 16.0195 26.1818C17.5508 25.394 18.8372 25.4546 20.1235 26.1818C21.8999 27.0909 23.615 27.1515 25.4526 26.1818C26.8002 25.5152 28.0253 25.394 29.5566 26.1818C30.6592 26.7273 31.8842 27.0909 33.4156 26.7273L32.8643 28.8485ZM6.52513 22.9697C8.05648 22.1818 9.28156 22.2424 10.6291 22.9697C12.528 24 14.2431 23.8788 15.897 22.9697C17.4283 22.1818 18.6534 22.2424 20.001 22.9697C21.7774 23.9394 23.5537 23.9394 25.3301 22.9697C26.6777 22.2424 27.9027 22.1818 29.4341 22.9697C31.0879 23.8788 32.8031 23.8182 34.0894 23.2727L33.6606 25.394C32.558 25.8182 31.333 25.8182 30.0466 25.1515C28.1478 24.1818 26.4327 24.303 24.7788 25.1515C23.4312 25.8182 22.1449 25.9394 20.6135 25.1515C18.8984 24.303 17.2446 24.1818 15.3457 25.1515C13.9981 25.8182 12.7118 25.9394 11.2417 25.1515C9.58783 24.303 7.87272 24.1818 5.97385 25.1515C4.68751 25.8182 3.52369 25.8182 2.42112 25.394L1.93109 23.2727C3.21742 23.8182 4.87128 23.8788 6.52513 22.9697Z" fill="#0181F5"/>
<path d="M16.0198 7.57576L16.8161 6.78788L25.0854 14.9697C26.4943 16.3636 28.7606 16.3636 30.1082 15.0303C31.5171 13.6364 31.5171 11.3939 30.1082 10L21.839 1.81818L22.6353 1.0303C22.8803 0.787879 22.8803 0.424242 22.6353 0.181818C22.3902 -0.0606061 22.0227 -0.0606061 21.7777 0.181818C19.3275 2.60606 17.6124 4.30303 15.1623 6.72727C14.9173 6.9697 14.9173 7.33333 15.1623 7.57576C15.4073 7.81818 15.7748 7.81818 16.0198 7.57576ZM29.1894 10.8485C30.1082 11.7576 30.1082 13.2727 29.1894 14.1818C28.2706 15.0909 26.8005 15.0303 25.8817 14.1212L18.5925 6.90909H25.2079L29.1894 10.8485ZM20.9814 2.66667L24.0441 5.69697H17.9187C19.7563 3.87879 19.1438 4.42424 20.9814 2.66667Z" fill="#0181F5"/>
<path d="M15.5294 15.9394C16.7544 15.9394 17.7958 14.9697 17.7958 13.7576C17.7958 12.7879 16.4482 10.7879 16.0194 10.1818C15.7744 9.81821 15.2231 9.81821 15.0393 10.1818C14.6106 10.7879 13.3242 12.7273 13.3242 13.697C13.3242 14.9697 14.3043 15.9394 15.5294 15.9394ZM15.5294 11.6364C16.0806 12.5455 16.5707 13.394 16.5707 13.697C16.5707 14.2425 16.1419 14.6667 15.5294 14.6667C14.9781 14.6667 14.5493 14.2425 14.5493 13.697C14.5493 13.4546 15.0393 12.5455 15.5294 11.6364Z" fill="#0181F5"/>
</svg>
