<svg width="48" height="48" viewBox="0 0 48 48" fill="none" xmlns="http://www.w3.org/2000/svg">
<path d="M4.4043 23.9831V39.7895C4.4043 40.2012 4.73737 40.5343 5.14909 40.5343H20.9555C21.3672 40.5343 21.7003 40.2012 21.7003 39.7895V23.9831C21.7003 23.5714 21.3672 23.2383 20.9555 23.2383H10.7191C11.0988 18.71 14.9056 15.1402 19.5315 15.1402C19.9432 15.1402 20.2763 14.8071 20.2763 14.3954V9.60221C20.2763 9.19049 19.9432 8.85742 19.5315 8.85742C11.1904 8.85742 4.4043 15.6435 4.4043 23.9831ZM18.7867 10.3674V13.6768C13.4349 14.0593 9.19897 18.5369 9.19897 23.9831C9.19897 24.3948 9.53204 24.7279 9.94376 24.7279H20.2109V39.0447H5.89388V23.9831C5.89388 16.7141 11.6122 10.7543 18.7867 10.3674Z" fill="white"/>
<path d="M41.8679 15.1402C42.2796 15.1402 42.6127 14.8071 42.6127 14.3954V9.60221C42.6127 9.19049 42.2796 8.85742 41.8679 8.85742C33.5283 8.85742 26.7422 15.6435 26.7422 23.9831V39.7895C26.7422 40.2012 27.0753 40.5343 27.487 40.5343H43.2921C43.7038 40.5343 44.0369 40.2012 44.0369 39.7895V23.9831C44.0369 23.5714 43.7038 23.2383 43.2921 23.2383H33.0555C33.4352 18.7098 37.2421 15.1402 41.8679 15.1402ZM31.5354 23.9831C31.5354 24.3948 31.8684 24.7279 32.2802 24.7279H42.5473V39.0447H28.2318V23.9831C28.2318 16.7141 33.9486 10.7543 41.1231 10.3674V13.6768C35.7714 14.0593 31.5354 18.5367 31.5354 23.9831Z" fill="white"/>
</svg>
