<svg width="60" height="54" viewBox="0 0 60 54" fill="none" xmlns="http://www.w3.org/2000/svg">
<path d="M43.6087 19.7028C43.7577 20.0556 44.1069 20.2684 44.4754 20.2684C44.5949 20.2684 44.7163 20.246 44.8335 20.1989C45.3121 20.0058 45.5394 19.4703 45.3411 19.0031C44.3254 16.607 42.8568 14.4608 40.9753 12.6244C37.1709 8.90987 32.1127 6.86431 26.7329 6.86431H22.9689V2.74572C22.9689 1.23146 21.7075 0 20.1564 0C18.6053 0 17.3439 1.23146 17.3439 2.74572C17.3439 3.25093 17.7639 3.66096 18.2814 3.66096C18.7989 3.66096 19.2189 3.25093 19.2189 2.74572C19.2189 2.24097 19.6394 1.83049 20.1564 1.83049C20.6734 1.83049 21.0939 2.24097 21.0939 2.74572V5.49145H12.6565V2.74572C12.6565 1.23146 11.3951 0 9.84402 0C8.29294 0 7.03154 1.23146 7.03154 2.74572C7.03154 3.25093 7.45154 3.66096 7.96903 3.66096C8.48652 3.66096 8.90652 3.25093 8.90652 2.74572C8.90652 2.24097 9.32698 1.83049 9.844 1.83049C10.361 1.83049 10.7815 2.24097 10.7815 2.74572V6.86429H10.0409C5.66842 6.86429 2.08627 10.1157 1.88611 14.2663C1.78111 16.4176 2.5597 18.4576 4.07748 20.0117C5.59621 21.5667 7.64416 22.4234 9.84445 22.4234C13.2044 22.4234 15.9381 25.0922 15.9381 28.3724C15.9381 31.6526 13.2044 34.3215 9.84445 34.3215H9.3757C6.80979 34.3215 4.41497 35.3145 2.63187 37.1171C0.848301 38.9205 -0.0840427 41.297 0.00595684 43.8084C0.184087 48.6706 4.47825 52.6262 9.5768 52.6262H23.9204C24.4379 52.6262 24.8579 52.2162 24.8579 51.711C24.8579 51.2058 24.4379 50.7958 23.9204 50.7958H9.57683C5.47532 50.7958 2.02255 47.6318 1.87958 43.7439C1.80739 41.7335 2.55317 39.8317 3.98003 38.3888C5.40643 36.9464 7.32265 36.1519 9.37529 36.1519H9.84404C14.2381 36.1519 17.8127 32.6621 17.8127 28.3724C17.8127 24.0827 14.2381 20.5929 9.84404 20.5929C8.16218 20.5929 6.59564 19.9376 5.43408 18.7487C4.27346 17.5602 3.67862 15.9993 3.75878 14.3532C3.90925 11.2332 6.72734 8.69478 10.0409 8.69478H10.7815V14.6438C10.7815 15.149 11.2015 15.5591 11.719 15.5591C12.2365 15.5591 12.6565 15.149 12.6565 14.6438V11.8981H21.0939V14.6438C21.0939 15.149 21.5139 15.5591 22.0314 15.5591C22.5489 15.5591 22.9689 15.149 22.9689 14.6438V8.69478H26.7329C31.6121 8.69478 36.1992 10.55 39.6496 13.918C41.3554 15.5838 42.6876 17.53 43.6087 19.7028ZM12.6565 10.0676V7.32192H21.0939V10.0676H12.6565Z" fill="#010F34"/>
<path d="M37.4999 25.6268C38.0173 25.6268 38.4373 25.2167 38.4373 24.7115C38.4373 24.2063 38.0173 23.7963 37.4999 23.7963C36.7527 23.7963 36.4222 23.5199 35.9221 23.1012C35.3174 22.5955 34.5646 21.9658 33.1241 21.9658C31.6837 21.9658 30.9309 22.5955 30.3262 23.1012C29.8256 23.5199 29.4951 23.7963 28.7479 23.7963C28.0017 23.7963 27.6717 23.5199 27.1715 23.1012C26.5673 22.5955 25.815 21.9658 24.375 21.9658C23.8575 21.9658 23.4375 22.3758 23.4375 22.8811C23.4375 23.3863 23.8575 23.7963 24.375 23.7963C25.1212 23.7963 25.4512 24.0727 25.9514 24.4914C26.5556 24.9971 27.3079 25.6268 28.7479 25.6268C30.1888 25.6268 30.9412 24.9971 31.5458 24.4914C32.046 24.0732 32.3765 23.7963 33.1236 23.7963C33.8708 23.7963 34.2013 24.0727 34.7014 24.4914C35.3066 24.9971 36.0589 25.6268 37.4999 25.6268Z" fill="#010F34"/>
<path d="M29.3776 33.8637C30.1247 33.8637 30.4552 34.1401 30.9553 34.5588C31.56 35.0645 32.3128 35.6942 33.7533 35.6942C34.2708 35.6942 34.6908 35.2841 34.6908 34.7789C34.6908 34.2737 34.2708 33.8637 33.7533 33.8637C33.0061 33.8637 32.6756 33.5873 32.1755 33.1686C31.5708 32.6629 30.818 32.0332 29.3776 32.0332C27.9371 32.0332 27.1843 32.6629 26.5796 33.1686C26.0795 33.5873 25.749 33.8637 25.0018 33.8637C24.2556 33.8637 23.9256 33.5873 23.4254 33.1686C22.8212 32.6629 22.0689 32.0332 20.6289 32.0332C20.1114 32.0332 19.6914 32.4432 19.6914 32.9484C19.6914 33.4536 20.1114 33.8637 20.6289 33.8637C21.3751 33.8637 21.7051 34.1401 22.2053 34.5588C22.8095 35.0645 23.5618 35.6941 25.0018 35.6941C26.4427 35.6941 27.1951 35.0645 27.7997 34.5588C28.2999 34.1401 28.6304 33.8637 29.3776 33.8637Z" fill="#010F34"/>
<path d="M19.9845 42.3214C19.3799 41.8157 18.6271 41.186 17.1866 41.186C15.7462 41.186 14.9933 41.8157 14.3887 42.3214C13.888 42.7401 13.5576 43.0165 12.8104 43.0165C12.0642 43.0165 11.7342 42.7401 11.234 42.3214C10.6298 41.8157 9.87748 41.186 8.43749 41.186C7.92 41.186 7.5 41.5961 7.5 42.1013C7.5 42.6065 7.92 43.0165 8.43749 43.0165C9.18373 43.0165 9.51373 43.2929 10.0139 43.7116C10.6181 44.2173 11.3704 44.847 12.8104 44.847C14.2513 44.847 15.0037 44.2173 15.6083 43.7116C16.1085 43.2934 16.439 43.0165 17.1861 43.0165C17.9333 43.0165 18.2638 43.2929 18.7639 43.7116C19.3686 44.2173 20.1214 44.847 21.5619 44.847C22.0794 44.847 22.4994 44.437 22.4994 43.9318C22.4994 43.4266 22.0794 43.0165 21.5619 43.0165C20.8152 43.0165 20.4842 42.7401 19.9845 42.3214Z" fill="#010F34"/>
<path d="M59.4212 26.6118C59.0706 26.4699 58.6674 26.5482 58.3993 26.8104L53.6313 31.4648C53.2656 31.8218 52.6713 31.8218 52.3056 31.4648L49.3324 28.5621C49.1552 28.3892 49.0577 28.1595 49.0577 27.9151C49.0577 27.6707 49.1552 27.441 49.3324 27.268L54.1 22.6131C54.3681 22.3513 54.4483 21.9578 54.3035 21.6155C54.1581 21.2736 53.8164 21.0508 53.4372 21.0508H46.714C45.9626 21.0508 45.2567 21.3363 44.7251 21.8548L41.1359 25.3588C40.6049 25.8778 40.3123 26.5669 40.3123 27.3005V32.1911C40.3123 32.4354 40.2148 32.6656 40.0377 32.8381L27.8503 44.7363C26.8181 45.7439 26.25 47.0834 26.25 48.5084C26.25 49.9334 26.8181 51.2729 27.8503 52.2801L28.0111 52.4375C29.0433 53.4452 30.4153 53.9998 31.8749 53.9998C33.3346 53.9998 34.7066 53.4452 35.7388 52.4375L47.9262 40.5394C48.1034 40.3664 48.3387 40.2713 48.589 40.2713H53.5985C54.3499 40.2713 55.0558 39.9857 55.5873 39.4672L59.1765 35.9632C59.7076 35.4443 60.0001 34.7551 60.0001 34.0215V27.4575C60.0001 27.0872 59.7713 26.7536 59.4212 26.6118ZM58.1251 34.0211C58.1251 34.2655 58.0276 34.4957 57.8504 34.6682L54.2613 38.1722C54.0841 38.3452 53.8488 38.4403 53.5985 38.4403H48.589C47.8376 38.4403 47.1317 38.7259 46.6001 39.2444L34.4127 51.1425C33.7349 51.8042 32.8335 52.1689 31.8749 52.1689C30.9163 52.1689 30.0149 51.8047 29.3372 51.143L29.1764 50.9855C28.4986 50.3238 28.125 49.4438 28.125 48.508C28.125 47.5722 28.4981 46.6922 29.1764 46.0304L41.3637 34.1323C41.8948 33.6134 42.1873 32.9242 42.1873 32.1907V27.3001C42.1873 27.0557 42.2848 26.8255 42.462 26.653L46.0512 23.149C46.2284 22.976 46.4637 22.8808 46.714 22.8808H51.1741L48.0063 25.973C47.4752 26.4915 47.1827 27.1811 47.1827 27.9147C47.1827 28.6482 47.4757 29.3374 48.0063 29.8563L50.9796 32.759C52.076 33.8294 53.8605 33.8294 54.9568 32.759L58.1242 29.6664V34.0211H58.1251V34.0211Z" fill="#010F34"/>
</svg>
