<svg width="40" height="40" viewBox="0 0 40 40" fill="none" xmlns="http://www.w3.org/2000/svg">
<g clip-path="url(#clip0_2421_975)">
<path d="M0.625238 39.9997H25.2597C25.4255 39.9997 25.5844 39.9339 25.7016 39.8166C25.8188 39.6994 25.8847 39.5405 25.8847 39.3747V33.3976C25.8943 32.4897 25.6133 31.6025 25.0828 30.8656C24.5522 30.1288 23.8 29.5809 22.9359 29.302L16.6234 27.1978V25.2045C16.6234 25.1829 16.6223 25.1615 16.6202 25.1405C17.4192 24.5108 18.0452 23.6886 18.4396 22.7509C18.8962 22.7497 19.343 22.6186 19.7279 22.3729C20.1128 22.1272 20.4198 21.7771 20.6131 21.3635C20.8065 20.9499 20.8781 20.4897 20.8197 20.0369C20.7613 19.5841 20.5753 19.1572 20.2834 18.8061C20.3765 18.3755 20.5326 17.5807 20.6 17.1235C20.6206 16.9833 20.6409 16.8518 20.6602 16.7274C20.8416 15.5591 20.9509 14.8539 20.2482 13.5309C19.4848 12.0946 18.3178 10.913 16.8911 10.1318C15.4644 9.35055 13.8403 9.00381 12.2189 9.13427C10.5975 9.26473 9.04977 9.8667 7.76632 10.866C6.48287 11.8653 5.51983 13.2182 4.99586 14.7581C4.98474 14.7908 4.97635 14.8244 4.97079 14.8585C4.76243 16.13 4.93954 17.4574 5.49602 18.8073C5.20465 19.1581 5.01899 19.5846 4.96068 20.0369C4.90236 20.4892 4.97379 20.9488 5.16664 21.3621C5.35949 21.7754 5.66582 22.1253 6.04993 22.3712C6.43404 22.6171 6.88012 22.7487 7.33618 22.7508C7.74183 23.7105 8.38833 24.5492 9.21313 25.1859C9.22875 25.1981 9.24524 25.2093 9.26118 25.2213V27.1978L2.94868 29.302C2.08467 29.5809 1.33249 30.1289 0.802036 30.8657C0.271579 31.6026 -0.00936737 32.4897 0.000238362 33.3976V39.3747C0.000238362 39.5405 0.0660864 39.6994 0.183297 39.8166C0.300507 39.9339 0.459478 39.9997 0.625238 39.9997ZM14.4782 31.677L14.2268 33.1136H11.658L11.4333 31.8287C11.4219 31.7636 11.4001 31.7007 11.3689 31.6424L12.9425 30.5253L14.4902 31.6244C14.4857 31.6414 14.4814 31.6589 14.4782 31.677ZM11.8284 34.3636H14.0573L14.8241 38.7497H11.0608L11.8284 34.3636ZM24.6351 33.3976V38.7497H21.6459V36.0149C21.6459 35.8491 21.5801 35.6901 21.4629 35.5729C21.3457 35.4557 21.1867 35.3899 21.0209 35.3899C20.8552 35.3899 20.6962 35.4557 20.579 35.5729C20.4618 35.6901 20.3959 35.8491 20.3959 36.0149V38.7497H16.093L15.3015 34.2245L15.6165 32.4238L17.4056 33.6943C17.4991 33.7607 17.609 33.8001 17.7234 33.8082C17.8378 33.8163 17.9523 33.7927 18.0542 33.7401C18.1561 33.6875 18.2415 33.6078 18.3012 33.5099C18.3609 33.4119 18.3924 33.2995 18.3924 33.1848V29.1049L22.5409 30.4877C23.1546 30.6859 23.6889 31.0753 24.0656 31.5988C24.4423 32.1224 24.6417 32.7527 24.6347 33.3976H24.6351ZM17.1429 28.6881V31.9743L14.0225 29.7584L16.0449 28.3221L17.1429 28.6881ZM18.8273 21.4303C18.9524 20.7075 18.9443 19.9678 18.8034 19.2478C19.0306 19.3246 19.2282 19.47 19.369 19.664C19.5099 19.858 19.5869 20.0909 19.5895 20.3306C19.5921 20.5703 19.5202 20.8049 19.3836 21.0019C19.2471 21.199 19.0526 21.3487 18.8273 21.4303ZM6.19625 15.1114C6.64984 13.81 7.47309 12.6691 8.56519 11.8285C9.65728 10.9878 10.9708 10.4839 12.345 10.3784C13.7191 10.2729 15.0942 10.5704 16.3018 11.2345C17.5094 11.8986 18.4972 12.9004 19.1441 14.1173C19.652 15.0731 19.5947 15.4417 19.425 16.5359C19.4052 16.6632 19.3844 16.7978 19.3632 16.9414C19.3206 17.2312 19.2391 17.6688 19.1633 18.0496C18.9268 17.974 18.6801 17.9355 18.4318 17.9356H18.4095C17.7029 15.6038 16.9047 14.3966 15.9053 14.1438C15.4671 14.0328 14.7843 14.0625 14.0216 14.8338C13.9855 14.8702 13.954 14.9109 13.9279 14.955C12.7849 16.8863 10.7437 17.8088 7.86219 17.6972C7.76368 17.6934 7.66566 17.713 7.57618 17.7544C7.4867 17.7958 7.40831 17.8578 7.34743 17.9353C7.0756 17.9353 6.80576 17.9816 6.54946 18.0721C6.17024 17.0495 6.05133 16.0556 6.19625 15.1114ZM6.19079 20.3434C6.19117 20.11 6.26201 19.8822 6.39403 19.6897C6.52606 19.4973 6.71311 19.3492 6.93071 19.2649C6.80693 19.9799 6.80997 20.7112 6.93969 21.4252C6.71989 21.3421 6.53056 21.1941 6.3968 21.0009C6.26304 20.8077 6.1912 20.5784 6.19079 20.3435V20.3434ZM8.28235 18.9567H8.33204C11.4051 18.9567 13.6335 17.8499 14.9613 15.6627C15.1488 15.483 15.3959 15.3038 15.5988 15.3556C15.7902 15.4039 16.4765 15.7735 17.2728 18.4974C17.2794 18.5198 17.2872 18.5418 17.2963 18.5633C17.7032 19.5354 17.7772 20.6148 17.507 21.6334C17.2368 22.652 16.6373 23.5526 15.8021 24.1952C14.9668 24.8377 13.9425 25.1861 12.8887 25.1861C11.8348 25.1861 10.8106 24.8376 9.97532 24.195C9.20172 23.5912 8.62692 22.7694 8.32513 21.8356C8.02335 20.9018 8.00844 19.899 8.28235 18.9567ZM12.8886 26.4344C13.7456 26.4343 14.5928 26.2516 15.3738 25.8985V27.2653L12.9425 28.9919L10.5112 27.2653V25.9474C11.2625 26.269 12.0713 26.4347 12.8886 26.4344ZM9.84063 28.3221L11.8631 29.7584L8.74243 31.9743V28.6881L9.84063 28.3221ZM1.25024 33.3976C1.24323 32.7527 1.44265 32.1224 1.81934 31.5989C2.19603 31.0754 2.73027 30.686 3.34399 30.4878L7.49243 29.1049V33.1849C7.49243 33.2995 7.524 33.412 7.58366 33.51C7.64333 33.6079 7.72879 33.6875 7.8307 33.7402C7.9326 33.7928 8.04702 33.8163 8.16142 33.8083C8.27582 33.8002 8.38579 33.7608 8.4793 33.6944L10.2684 32.424L10.5833 34.2246L9.79188 38.7497H5.48891V36.0149C5.48891 35.8491 5.42306 35.6901 5.30585 35.5729C5.18864 35.4557 5.02967 35.3899 4.86391 35.3899C4.69815 35.3899 4.53918 35.4557 4.42197 35.5729C4.30476 35.6901 4.23891 35.8491 4.23891 36.0149V38.7497H1.25024V33.3976ZM40.0002 13.8388C40.0002 14.0045 39.9344 14.1635 39.8172 14.2807C39.7 14.3979 39.541 14.4638 39.3752 14.4638H22.9155C22.7497 14.4638 22.5907 14.3979 22.4735 14.2807C22.3563 14.1635 22.2905 14.0045 22.2905 13.8388C22.2905 13.673 22.3563 13.514 22.4735 13.3968C22.5907 13.2796 22.7497 13.2138 22.9155 13.2138H25.2876V9.32314C25.2876 9.15738 25.3534 8.99841 25.4706 8.8812C25.5879 8.76399 25.7468 8.69814 25.9126 8.69814C26.0783 8.69814 26.2373 8.76399 26.3545 8.8812C26.4717 8.99841 26.5376 9.15738 26.5376 9.32314V13.2138H28.7761V6.14924C28.7761 5.98348 28.8419 5.82451 28.9592 5.7073C29.0764 5.59009 29.2353 5.52424 29.4011 5.52424C29.5669 5.52424 29.7258 5.59009 29.843 5.7073C29.9602 5.82451 30.0261 5.98348 30.0261 6.14924V13.2138H32.2646V7.56463C32.2646 7.39887 32.3305 7.2399 32.4477 7.12269C32.5649 7.00548 32.7239 6.93963 32.8896 6.93963C33.0554 6.93963 33.2143 7.00548 33.3316 7.12269C33.4488 7.2399 33.5146 7.39887 33.5146 7.56463V13.2138H35.7532V4.34775C35.7532 4.18199 35.8191 4.02302 35.9363 3.90581C36.0535 3.7886 36.2124 3.72275 36.3782 3.72275C36.544 3.72275 36.7029 3.7886 36.8201 3.90581C36.9374 4.02302 37.0032 4.18199 37.0032 4.34775V13.2138H39.3752C39.541 13.2138 39.7 13.2796 39.8172 13.3968C39.9344 13.514 40.0002 13.673 40.0002 13.8388ZM35.9545 0.165254C36.0766 0.0545937 36.2375 -0.00334553 36.4021 0.00404776C36.5668 0.0114411 36.7218 0.0835684 36.8336 0.20473C36.9453 0.325893 37.0046 0.486281 36.9987 0.650985C36.9927 0.81569 36.922 0.971377 36.8018 1.08416L33.3133 4.30104C33.2262 4.38138 33.118 4.43529 33.0014 4.45648C32.8848 4.47767 32.7645 4.46527 32.6547 4.42072L29.5307 3.15322L26.3332 6.06221C26.2104 6.17277 26.0489 6.23023 25.8839 6.22203C25.7189 6.21383 25.5638 6.14063 25.4527 6.01843C25.3415 5.89624 25.2832 5.73499 25.2906 5.56995C25.2979 5.4049 25.3703 5.24948 25.492 5.13768L28.9805 1.96369C29.0676 1.88434 29.1754 1.83123 29.2914 1.81049C29.4074 1.78976 29.5269 1.80224 29.6361 1.8465L32.7573 3.11283L35.9545 0.165254ZM22.7797 19.7106C22.6409 19.7415 22.5168 19.8188 22.4278 19.9297C22.3389 20.0406 22.2904 20.1785 22.2904 20.3207V21.8981C22.2904 22.0403 22.3389 22.1783 22.4278 22.2892C22.5168 22.4001 22.6409 22.4774 22.7797 22.5082L23.259 22.6149C23.3381 22.8589 23.4365 23.0963 23.5533 23.3247L23.2896 23.7392C23.2133 23.8591 23.1801 24.0016 23.1957 24.1429C23.2112 24.2843 23.2744 24.4161 23.375 24.5167L24.4904 25.6318C24.5909 25.7323 24.7227 25.7956 24.8641 25.8111C25.0054 25.8266 25.1478 25.7935 25.2677 25.7172L25.6822 25.4536C25.9106 25.5704 26.148 25.6688 26.3921 25.7479L26.4987 26.2271C26.5295 26.3659 26.6068 26.49 26.7177 26.579C26.8286 26.6679 26.9666 26.7164 27.1088 26.7164H28.6859C28.8281 26.7164 28.9661 26.6679 29.077 26.579C29.1879 26.49 29.2651 26.3659 29.296 26.2271L29.4026 25.7479C29.6467 25.6688 29.8841 25.5704 30.1126 25.4536L30.5266 25.7172C30.6466 25.7935 30.789 25.8266 30.9303 25.8111C31.0716 25.7956 31.2034 25.7323 31.304 25.6318L32.4194 24.5167C32.5199 24.4161 32.5832 24.2843 32.5987 24.1429C32.6143 24.0016 32.5811 23.8591 32.5048 23.7392L32.2411 23.3247C32.3579 23.0963 32.4563 22.8589 32.5355 22.6149L33.0147 22.5082C33.1535 22.4774 33.2776 22.4001 33.3666 22.2892C33.4555 22.1783 33.504 22.0403 33.504 21.8981V20.3206C33.504 20.1784 33.4555 20.0405 33.3666 19.9295C33.2776 19.8186 33.1535 19.7414 33.0147 19.7105L32.5354 19.6039C32.4563 19.3599 32.3579 19.1225 32.2411 18.8941L32.5048 18.4795C32.5811 18.3596 32.6142 18.2172 32.5987 18.0758C32.5831 17.9345 32.5199 17.8027 32.4193 17.7021L31.3041 16.5869C31.2035 16.4864 31.0717 16.4231 30.9303 16.4076C30.789 16.3921 30.6466 16.4252 30.5266 16.5016L30.1126 16.7652C29.8841 16.6484 29.6467 16.55 29.4026 16.4708L29.296 15.9916C29.2651 15.8528 29.1879 15.7287 29.0769 15.6398C28.966 15.5508 28.8281 15.5024 28.6859 15.5024H27.1088C26.9666 15.5024 26.8287 15.5508 26.7178 15.6398C26.6068 15.7287 26.5296 15.8528 26.4987 15.9916L26.3921 16.4708C26.148 16.5499 25.9106 16.6484 25.6822 16.7652L25.2677 16.5016C25.1478 16.4252 25.0054 16.3921 24.864 16.4076C24.7227 16.4231 24.5909 16.4864 24.4903 16.5869L23.3752 17.7021C23.2747 17.8027 23.2114 17.9345 23.1959 18.0758C23.1803 18.2172 23.2135 18.3596 23.2898 18.4795L23.5534 18.8941C23.4366 19.1225 23.3382 19.3599 23.2591 19.604L22.7797 19.7106ZM23.5404 20.822L23.8953 20.7431C24.0101 20.7176 24.1153 20.6602 24.1989 20.5776C24.2825 20.495 24.3411 20.3905 24.368 20.276C24.4572 19.8968 24.6075 19.5347 24.8128 19.2036C24.8747 19.1037 24.9072 18.9883 24.9065 18.8707C24.9058 18.7532 24.8719 18.6382 24.8088 18.539L24.6135 18.2317L25.0198 17.8255L25.327 18.0208C25.4262 18.0838 25.541 18.1176 25.6585 18.1183C25.7759 18.119 25.8912 18.0866 25.9911 18.0248C26.3222 17.8194 26.6844 17.6692 27.0637 17.58C27.1781 17.5531 27.2826 17.4945 27.3652 17.4109C27.4479 17.3274 27.5052 17.2222 27.5308 17.1074L27.6096 16.7525H28.1843L28.2632 17.1074C28.2887 17.2222 28.3461 17.3274 28.4287 17.411C28.5114 17.4946 28.6159 17.5532 28.7303 17.5801C29.1096 17.6693 29.4718 17.8195 29.8029 18.0249C29.9028 18.0867 30.0181 18.119 30.1355 18.1183C30.253 18.1176 30.3678 18.0838 30.467 18.0208L30.7742 17.8255L31.1805 18.2317L30.9852 18.539C30.9221 18.6382 30.8882 18.7532 30.8875 18.8707C30.8868 18.9883 30.9193 19.1037 30.9812 19.2036C31.1866 19.5347 31.3368 19.8969 31.426 20.2762C31.4529 20.3906 31.5116 20.4951 31.5952 20.5777C31.6788 20.6603 31.784 20.7176 31.8987 20.7431L32.2536 20.822V21.3967L31.8987 21.4756C31.7839 21.5012 31.6787 21.5585 31.5951 21.6411C31.5115 21.7238 31.4529 21.8283 31.426 21.9427C31.3368 22.3219 31.1865 22.6841 30.9812 23.0152C30.9193 23.1151 30.8868 23.2305 30.8875 23.3481C30.8882 23.4656 30.9221 23.5806 30.9852 23.6798L31.1805 23.987L30.7742 24.3932L30.467 24.1979C30.3678 24.1349 30.2529 24.1012 30.1355 24.1005C30.018 24.0998 29.9028 24.1322 29.8029 24.194C29.4718 24.3993 29.1096 24.5495 28.7303 24.6387C28.6159 24.6656 28.5114 24.7242 28.4288 24.8078C28.3462 24.8914 28.2888 24.9966 28.2633 25.1113L28.1844 25.4663H27.6097L27.5309 25.1113C27.5053 24.9966 27.448 24.8914 27.3653 24.8077C27.2827 24.7241 27.1781 24.6655 27.0637 24.6386C26.6844 24.5495 26.3222 24.3993 25.9912 24.1939C25.8913 24.1321 25.776 24.0997 25.6586 24.1004C25.5411 24.1011 25.4262 24.1349 25.3271 24.1979L25.0198 24.3932L24.6136 23.987L24.8089 23.6798C24.872 23.5806 24.9059 23.4656 24.9066 23.3481C24.9073 23.2305 24.8748 23.1151 24.8129 23.0152C24.6075 22.6841 24.4573 22.3218 24.368 21.9425C24.3411 21.8281 24.2825 21.7237 24.1989 21.6411C24.1153 21.5585 24.0101 21.5012 23.8954 21.4756L23.5405 21.3967L23.5404 20.822ZM27.8973 23.7575C28.4212 23.7575 28.9332 23.6022 29.3687 23.3112C29.8043 23.0202 30.1437 22.6065 30.3442 22.1226C30.5446 21.6387 30.5971 21.1061 30.4949 20.5924C30.3927 20.0786 30.1405 19.6067 29.7701 19.2364C29.3997 18.866 28.9278 18.6137 28.414 18.5115C27.9003 18.4093 27.3678 18.4618 26.8838 18.6622C26.3999 18.8627 25.9863 19.2022 25.6953 19.6377C25.4042 20.0732 25.2489 20.5853 25.2489 21.1091C25.2497 21.8113 25.529 22.4845 26.0255 22.981C26.522 23.4775 27.1952 23.7568 27.8973 23.7575ZM27.8973 19.7106C28.1739 19.7106 28.4443 19.7927 28.6743 19.9463C28.9042 20.1 29.0835 20.3184 29.1893 20.5739C29.2952 20.8295 29.3229 21.1106 29.2689 21.3819C29.215 21.6532 29.0818 21.9024 28.8862 22.0979C28.6906 22.2935 28.4414 22.4267 28.1702 22.4806C27.8989 22.5346 27.6177 22.5069 27.3622 22.4011C27.1067 22.2952 26.8883 22.116 26.7346 21.886C26.5809 21.656 26.4989 21.3857 26.4989 21.1091C26.4993 20.7383 26.6468 20.3828 26.9089 20.1207C27.1711 19.8585 27.5266 19.711 27.8973 19.7106Z" fill="#0181F5"/>
</g>
<defs>
<clipPath id="clip0_2421_975">
<rect width="40" height="40" fill="white"/>
</clipPath>
</defs>
</svg>
