<svg width="40" height="40" viewBox="0 0 40 40" fill="none" xmlns="http://www.w3.org/2000/svg">
<g clip-path="url(#clip0_2421_999)">
<path d="M39.7418 25.5506C39.4744 25.3691 39.1096 25.4392 38.9271 25.7061C38.878 25.778 37.6976 27.4678 35.53 27.4678C33.3622 27.4678 32.1819 25.778 32.1339 25.708C31.918 25.3659 31.3749 25.3663 31.1592 25.7085C31.1474 25.7261 29.9536 27.4679 27.7664 27.4679C25.9332 27.4679 24.8064 26.2596 24.4732 25.8442V16.7468H39.413C39.7373 16.7468 40.0001 16.484 40.0001 16.1597C40.0001 15.8354 39.7373 15.5726 39.413 15.5726H34.6918V11.2937C34.6918 7.41179 31.5711 4.22351 27.7353 4.1864C25.8482 4.16742 24.0686 4.89101 22.725 6.22171C22.0744 6.86601 21.5668 7.61429 21.2146 8.42827C20.1294 5.95695 17.6889 4.21382 14.8586 4.1864C14.8353 4.18617 14.8121 4.18609 14.7888 4.18609C12.9275 4.18609 11.1753 4.90742 9.84816 6.22171C8.50425 7.55273 7.76402 9.32484 7.76402 11.2116V15.5726H0.631677C0.30738 15.5726 0.0445672 15.8355 0.0445672 16.1598C0.0445672 16.4841 0.30738 16.7469 0.631677 16.7469H7.76402V19.0653C7.76402 19.3896 8.02683 19.6524 8.35113 19.6524C8.67543 19.6524 8.93824 19.3896 8.93824 19.0653V11.2116C8.93824 9.64054 9.5548 8.16476 10.6745 7.05593C11.7938 5.94749 13.2745 5.34187 14.8474 5.36054C18.0418 5.3914 20.6408 8.05304 20.6408 11.2937V15.5726H19.1568V11.2116C19.1568 8.84437 17.2317 6.88546 14.8654 6.84491C14.8404 6.84452 14.8157 6.84429 14.7908 6.84429C13.6577 6.84429 12.584 7.28749 11.7604 8.0971C10.91 8.93312 10.4222 10.0927 10.4222 11.2786V27.0358C9.63957 26.6427 9.13793 26.0878 8.93816 25.8375V21.4136C8.93816 21.0893 8.67535 20.8265 8.35105 20.8265C8.02675 20.8265 7.76394 21.0893 7.76394 21.4136V25.8434C7.42957 26.2604 6.30285 27.4678 4.47035 27.4678C2.30261 27.4678 1.1223 25.778 1.07433 25.708C0.893395 25.439 0.52863 25.3676 0.259567 25.5484C-0.00949532 25.7293 -0.0809797 26.0941 0.0999578 26.3632C0.162458 26.4562 1.66433 28.642 4.47027 28.642C6.38863 28.642 7.69738 27.6205 8.35339 26.9444C9.00941 27.6205 10.3182 28.642 12.2365 28.642C14.1544 28.642 15.4617 27.621 16.1171 26.9447C16.7733 27.6209 18.082 28.642 19.9999 28.642C21.9182 28.642 23.227 27.6205 23.883 26.9444C24.539 27.6205 25.8478 28.642 27.7661 28.642C29.684 28.642 30.9913 27.621 31.6468 26.9447C32.3029 27.6209 33.6116 28.642 35.5295 28.642C38.3355 28.642 39.8373 26.4562 39.8998 26.3632C40.0806 26.0948 40.0094 25.7321 39.7418 25.5506ZM11.5964 20.8266H20.6408V22.4703H11.5964V20.8266ZM20.6408 19.6523H11.5964V16.7468H20.6408V19.6523ZM12.5836 8.93452C13.1989 8.32968 14.0019 8.0046 14.8453 8.01898C16.5753 8.04867 17.9827 9.48085 17.9827 11.2116V15.5727H11.5965V11.2787C11.5964 10.4055 11.9563 9.55117 12.5836 8.93452ZM16.6042 25.708C16.3885 25.3678 15.848 25.3676 15.6307 25.7066C15.5817 25.7785 14.404 27.4678 12.2368 27.4678C12.0125 27.4678 11.7994 27.4489 11.5964 27.4164V23.6444H20.6408V27.4163C20.4378 27.4488 20.2246 27.4678 20.0001 27.4678C17.8325 27.4678 16.6521 25.778 16.6042 25.708ZM21.815 27.0355V11.2116C21.815 9.64054 22.4315 8.16476 23.5512 7.05593C24.6705 5.94749 26.1514 5.34187 27.724 5.36054C30.9186 5.3914 33.5175 8.05304 33.5175 11.2937V15.5726H32.0336V14.2675C32.0336 13.9432 31.7707 13.6804 31.4464 13.6804C31.1221 13.6804 30.8593 13.9432 30.8593 14.2675V15.5726H24.4731V11.2785C24.4731 10.4055 24.8329 9.55109 25.4603 8.93437C26.0756 8.32952 26.8771 8.00445 27.7219 8.01882C29.4519 8.04851 30.8593 9.4807 30.8593 11.2115V11.9191C30.8593 12.2434 31.1221 12.5062 31.4464 12.5062C31.7707 12.5062 32.0336 12.2434 32.0336 11.9191V11.2115C32.0336 8.84429 30.1084 6.88538 27.7421 6.84484C27.7171 6.84445 27.6925 6.84421 27.6675 6.84421C26.5344 6.84421 25.4608 7.28742 24.6371 8.09702C23.7868 8.93304 23.2989 10.0927 23.2989 11.2785V25.8367C23.0986 26.088 22.597 26.6427 21.815 27.0355Z" fill="#0181F5"/>
<path d="M16.1195 34.6394C13.9518 34.6394 12.7714 32.9496 12.7235 32.8796C12.5079 32.5395 11.9678 32.5392 11.7503 32.8778C11.7012 32.9497 10.5208 34.6395 8.35316 34.6395C6.1855 34.6395 5.00511 32.9497 4.95715 32.8797C4.77621 32.6106 4.41144 32.5392 4.14238 32.7201C3.87332 32.901 3.80183 33.2657 3.98277 33.5348C4.04527 33.6278 5.54707 35.8136 8.35308 35.8136C10.2714 35.8136 11.5802 34.792 12.2362 34.116C12.8922 34.792 14.2011 35.8136 16.1194 35.8136C16.4437 35.8136 16.7065 35.5508 16.7065 35.2265C16.7065 34.9022 16.4438 34.6394 16.1195 34.6394Z" fill="#0181F5"/>
<path d="M35.8582 32.7217C35.5905 32.5405 35.2259 32.611 35.0436 32.878C34.9945 32.9499 33.8169 34.6392 31.6496 34.6392C29.4819 34.6392 28.3016 32.9494 28.2536 32.8794C28.0378 32.5375 27.495 32.5376 27.2792 32.8794C27.2673 32.897 26.0707 34.6392 23.8832 34.6392C21.7155 34.6392 20.5352 32.9494 20.4872 32.8794C20.2715 32.5392 19.731 32.5389 19.5137 32.878C19.5091 32.8848 19.0353 33.5702 18.1613 34.0803C17.8813 34.2438 17.7868 34.6033 17.9503 34.8833C18.1138 35.1632 18.4732 35.2577 18.7534 35.0944C19.2927 34.7795 19.7097 34.4136 19.9996 34.1152C20.6555 34.7913 21.9644 35.8134 23.8832 35.8134C25.8016 35.8134 27.1103 34.7918 27.7663 34.1157C28.4223 34.7918 29.7312 35.8134 31.6494 35.8134C34.4559 35.8134 35.9548 33.6271 36.0173 33.5341C36.1976 33.2654 36.126 32.9028 35.8582 32.7217Z" fill="#0181F5"/>
</g>
<defs>
<clipPath id="clip0_2421_999">
<rect width="40" height="40" fill="white"/>
</clipPath>
</defs>
</svg>
