<svg width="55" height="55" viewBox="0 0 55 55" fill="none" xmlns="http://www.w3.org/2000/svg">
<path d="M6.72272 53.2812C8.0978 53.2812 9.2165 52.1626 9.2165 50.7875V45.3375H27.3486V50.7875C27.3486 52.1626 28.4673 53.2812 29.8423 53.2812C31.2174 53.2812 32.3361 52.1626 32.3361 50.7875V40.3524H33.9251C34.5204 41.9446 35.6071 42.9104 36.8625 42.9104C38.7831 42.9104 40.2879 40.5874 40.2879 37.6216C40.2879 34.6515 38.7831 32.3248 36.8625 32.3248C35.6079 32.3248 34.5211 33.2936 33.9249 34.8907H32.3361V10.7262C32.3361 10.0733 32.8669 9.5425 33.5199 9.5425H35.8777C36.5759 11.3336 38.0155 12.5008 39.6215 12.5008C41.9428 12.5008 43.8315 10.0842 43.8315 7.11376C43.8315 4.1391 41.9428 1.71875 39.6215 1.71875C38.0399 1.71875 36.644 2.81542 35.9248 4.55452H33.5199C30.1172 4.55452 27.3486 7.32315 27.3486 10.7262V16.2983H9.2165V10.7262C9.2165 10.0733 9.74773 9.5425 10.4002 9.5425H12.7615C13.4596 11.3336 14.8988 12.5008 16.5048 12.5008C18.8266 12.5008 20.7153 10.0842 20.7153 7.11376C20.7153 4.1391 18.8266 1.71875 16.5048 1.71875C14.9235 1.71875 13.5277 2.81542 12.8086 4.55452H10.4002C6.99715 4.55452 4.22852 7.32315 4.22852 10.7262V50.7875C4.22852 52.1626 5.34721 53.2812 6.72272 53.2812ZM27.3486 31.867H9.2165V29.7773H27.3486V31.867ZM13.0606 38.0521C12.8605 38.2476 12.6036 38.3551 12.3372 38.3551H9.2165V36.3308H12.3372C12.8953 36.3308 13.3493 36.7849 13.3493 37.3429C13.3493 37.609 13.2415 37.8662 13.0606 38.0521ZM10.8063 34.6121H9.2165V33.5857H11.3168C11.1226 33.891 10.9487 34.2301 10.8063 34.6121ZM12.6782 34.6465C12.9867 34.1002 13.3731 33.7615 13.745 33.7615C14.5507 33.7615 15.452 35.2919 15.452 37.3396C15.452 38.2646 15.2556 39.132 14.9208 39.8107H13.4807C13.767 39.6769 14.0377 39.5003 14.2762 39.2669C14.7869 38.7436 15.0681 38.0601 15.0681 37.3429C15.0681 35.9537 14.022 34.8166 12.6782 34.6465ZM16.1831 33.5857H27.3486V39.8107H16.7656C17.019 39.0537 17.1708 38.2114 17.1708 37.3396C17.1708 35.8587 16.7964 34.5381 16.1831 33.5857ZM27.3486 28.0585H9.2165V21.8255H27.3486V28.0585ZM9.2165 43.6187V41.5295H27.3486V43.6187H9.2165ZM32.3361 36.6095H35.4568C36.0149 36.6095 36.4689 37.0635 36.4689 37.6216C36.4689 37.888 36.3615 38.1448 36.1802 38.3307C35.9801 38.5263 35.7233 38.6337 35.4568 38.6337H32.3361V36.6095ZM36.8625 34.0435C37.6682 34.0435 38.5691 35.5738 38.5691 37.6216C38.5691 39.6647 37.6682 41.1917 36.8625 41.1917C36.4916 41.1917 36.1068 40.8581 35.7994 40.3188C36.3897 40.2434 36.9451 39.9864 37.3954 39.5459C37.9065 39.0231 38.1877 38.3395 38.1877 37.6216C38.1877 36.2322 37.1415 35.095 35.7975 34.9251C36.1056 34.3807 36.4913 34.0435 36.8625 34.0435ZM39.6215 3.4375C40.9718 3.4375 42.1128 5.121 42.1128 7.11376C42.1128 9.10233 40.9718 10.7821 39.6215 10.7821C38.912 10.7821 38.2458 10.3083 37.7822 9.5425H38.7667C40.1418 9.5425 41.2605 8.42381 41.2605 7.0483C41.2605 5.67322 40.1418 4.55452 38.7667 4.55452H37.8633C38.3254 3.86331 38.9586 3.4375 39.6215 3.4375ZM29.0673 10.7262C29.0673 8.27106 31.0647 6.27327 33.5199 6.27327H38.7667C39.2015 6.27327 39.5418 6.61358 39.5418 7.0483C39.5418 7.47589 39.1939 7.82375 38.7667 7.82375H33.5199C31.9194 7.82375 30.6174 9.12582 30.6174 10.7262V35.7501V39.4931V50.7875C30.6174 51.2146 30.2695 51.5625 29.8423 51.5625C29.4152 51.5625 29.0673 51.2146 29.0673 50.7875V44.4781V40.6701V32.7263V28.9179V20.9661V17.1577V10.7262ZM27.3486 18.0171V20.1068H9.2165V18.0171H27.3486ZM16.5048 3.4375C17.8556 3.4375 18.9965 5.121 18.9965 7.11376C18.9965 9.10233 17.8556 10.7821 16.5048 10.7821C15.7956 10.7821 15.1295 10.3083 14.6659 9.5425H15.6551C17.0302 9.5425 18.1489 8.42381 18.1489 7.0483C18.1489 5.67322 17.0302 4.55452 15.6551 4.55452H14.7469C15.209 3.86331 15.8422 3.4375 16.5048 3.4375ZM5.94727 10.7262C5.94727 8.27106 7.94506 6.27327 10.4002 6.27327H15.6551C16.0823 6.27327 16.4301 6.62113 16.4301 7.0483C16.4301 7.47589 16.0823 7.82375 15.6551 7.82375H10.4002C8.79982 7.82375 7.49775 9.12582 7.49775 10.7262V17.1577V20.9661V28.9179V32.7263V35.4715V39.2144V40.6701V44.4781V50.7875C7.49775 51.2146 7.14989 51.5625 6.72272 51.5625C6.29513 51.5625 5.94727 51.2146 5.94727 50.7875V10.7262Z" fill="#0181F5"/>
<path d="M38.5703 26.7695C38.5703 28.3095 39.8233 29.5625 41.3633 29.5625C42.9033 29.5625 44.1562 28.3095 44.1562 26.7695C44.1562 25.2295 42.9033 23.9766 41.3633 23.9766C39.8233 23.9766 38.5703 25.2295 38.5703 26.7695ZM42.4375 26.7695C42.4375 27.362 41.9558 27.8438 41.3633 27.8438C40.7708 27.8438 40.2891 27.362 40.2891 26.7695C40.2891 26.177 40.7708 25.6953 41.3633 25.6953C41.9558 25.6953 42.4375 26.177 42.4375 26.7695Z" fill="#0181F5"/>
<path d="M48.5639 20.1576C48.5639 18.0134 46.8195 16.269 44.6753 16.269C42.5315 16.269 40.7871 18.0134 40.7871 20.1576C40.7871 22.3019 42.5315 24.0462 44.6753 24.0462C46.8195 24.0462 48.5639 22.3019 48.5639 20.1576ZM42.5059 20.1576C42.5059 18.9613 43.479 17.9878 44.6753 17.9878C45.8716 17.9878 46.8451 18.9613 46.8451 20.1576C46.8451 21.354 45.8716 22.3275 44.6753 22.3275C43.479 22.3275 42.5059 21.354 42.5059 20.1576Z" fill="#0181F5"/>
<path d="M48.4706 16.3387C50.6149 16.3387 52.3592 14.5944 52.3592 12.4501C52.3592 10.3059 50.6149 8.56152 48.4706 8.56152C46.3264 8.56152 44.582 10.3059 44.582 12.4501C44.582 14.5944 46.3264 16.3387 48.4706 16.3387ZM48.4706 10.2803C49.6669 10.2803 50.6405 11.2538 50.6405 12.4501C50.6405 13.6464 49.6669 14.6199 48.4706 14.6199C47.2743 14.6199 46.3008 13.6464 46.3008 12.4501C46.3008 11.2538 47.2743 10.2803 48.4706 10.2803Z" fill="#0181F5"/>
</svg>
