<svg width="41" height="40" viewBox="0 0 41 40" fill="none" xmlns="http://www.w3.org/2000/svg">
<path d="M39.7788 13.982H36.823V10.1377C36.823 4.54773 32.2184 0 26.5586 0C23.3362 0 20.3514 1.4728 18.4112 3.97844C16.5335 1.56139 13.5803 0 10.2645 0C4.60464 0 0 4.54773 0 10.1377V38.4726C0 39.3148 0.693716 40 1.54647 40H19.0987C19.4304 40 19.6993 39.7344 19.6993 39.4068C19.6993 39.0792 19.4304 38.8137 19.0987 38.8137H1.54647C1.35612 38.8137 1.20117 38.6607 1.20117 38.4726V34.674C3.03303 35.8253 5.49527 35.5611 7.01515 33.899C8.81602 35.8629 11.9436 35.8775 13.7576 33.8989C15.5559 35.8607 18.6864 35.8774 20.5 33.899C22.308 35.8712 25.436 35.8699 27.2424 33.899C29.048 35.8686 32.1765 35.8717 33.9849 33.899C35.4967 35.552 37.9536 35.8334 39.7988 34.674V38.4726C39.7988 38.6606 39.6439 38.8137 39.4535 38.8137H21.9014C21.5696 38.8137 21.3008 39.0792 21.3008 39.4068C21.3008 39.7344 21.5696 40 21.9014 40H39.4535C40.3062 40 41 39.3148 41 38.4726C41 36.9388 41 25.2451 41 23.4977C41 23.1701 40.7312 22.9045 40.3994 22.9045C40.0677 22.9045 39.7988 23.1701 39.7988 23.4977V28.0395C39.6314 28.1446 38.5916 29.2959 36.823 29.0146V15.1683H39.7788C39.7899 15.1683 39.7988 15.1772 39.7988 15.1881V20.7295C39.7988 21.0571 40.0677 21.3227 40.3994 21.3227C40.7312 21.3227 41 21.0571 41 20.7295V15.1881C41 14.5231 40.4522 13.982 39.7788 13.982ZM19.1243 5.02321C20.8258 2.61367 23.5776 1.18634 26.5586 1.18634C31.556 1.18634 35.6218 5.20188 35.6218 10.1377V28.5802C35.0055 28.2105 34.8298 27.8666 34.6123 27.6999C34.3704 27.5144 34.0689 27.4525 33.7895 27.5061C33.7895 19.7067 33.7896 17.5302 33.7895 10.1377C33.7895 6.19975 30.5457 2.99599 26.5587 2.99599C23.6919 2.99599 21.2094 4.65236 20.0406 7.0468C19.8247 6.37754 19.5124 5.67602 19.1243 5.02321ZM28.0333 27.8565C27.6207 27.3641 26.8634 27.3651 26.4517 27.8564C25.2132 29.3345 22.8246 29.5913 21.2722 27.8366C21.0794 27.6182 20.8006 27.4955 20.5291 27.4879V24.1563H32.5883V28.4196C31.1746 29.4437 29.1778 29.2221 28.0333 27.8565ZM14.553 27.8619C14.5514 27.8601 14.5498 27.8583 14.5482 27.8565C14.1362 27.3648 13.3788 27.3647 12.9668 27.8565C11.6216 29.4616 9.14667 29.4567 7.80584 27.8566C7.39328 27.3642 6.6359 27.3651 6.22422 27.8565C4.9485 29.3789 2.69078 29.4369 1.32601 28.1367C1.28581 28.0984 1.22231 28.0528 1.20109 28.0395V15.1683H16.2941V28.9535C15.5827 28.7725 14.988 28.3787 14.553 27.8619ZM16.2942 13.982H4.23468V10.1377C4.23468 6.8539 6.93964 4.18233 10.2645 4.18233C13.5893 4.18233 16.2943 6.8539 16.2943 10.1377L16.2942 13.982ZM32.5883 15.48H20.5291V13.6704H32.5883V15.48ZM20.5291 16.6664H32.5883V19.9741H20.5291V16.6664ZM20.5291 21.1604H32.5883V22.97H20.5291V21.1604ZM32.5883 12.484H20.5288V10.1377C20.5288 6.8539 23.2337 4.18233 26.5586 4.18233C29.8834 4.18233 32.5883 6.8539 32.5883 10.1377V12.484ZM1.20117 10.1377C1.20117 5.20188 5.26689 1.18634 10.2645 1.18634C15.2436 1.18634 19.3277 5.18946 19.3277 10.1377V28.2423C18.8242 28.6773 18.1871 28.9624 17.4954 29.0382C17.4954 28.1615 17.4954 11.0441 17.4954 10.1377C17.4954 6.19975 14.2516 2.99599 10.2645 2.99599C6.27731 2.99599 3.03351 6.19975 3.03351 10.1377V13.982H1.20117V10.1377ZM33.1943 32.9888C31.8493 34.5938 29.3749 34.5899 28.0332 32.9889C27.6208 32.4965 26.8635 32.4975 26.4517 32.9889C25.1078 34.5925 22.6336 34.5912 21.2907 32.9889C20.8698 32.4864 20.1097 32.5109 19.7093 32.9889C18.3668 34.5909 15.8907 34.591 14.5482 32.9889C14.1351 32.4958 13.3777 32.4984 12.9669 32.9889C11.6685 34.5382 9.30122 34.5935 7.92932 33.1284C7.7827 32.9718 7.55143 32.6201 7.01515 32.6201C7.0069 32.622 6.55198 32.5979 6.22422 32.989C4.94618 34.5143 2.68838 34.5667 1.32601 33.2691C1.28605 33.231 1.22191 33.185 1.20109 33.172V29.5416C3.00797 30.6769 5.47525 30.4504 7.01507 28.7666C8.80946 30.7239 11.9394 30.7495 13.7574 28.7666C15.5679 30.7457 18.7014 30.7284 20.5 28.7665C22.3077 30.7383 25.4368 30.7364 27.2424 28.7666C29.0421 30.7332 32.171 30.7447 33.9849 28.7667C35.5163 30.4435 37.986 30.6816 39.7988 29.5417V33.172C39.6602 33.2593 38.6953 34.3526 36.9926 34.172C36.1232 34.0798 35.3413 33.6638 34.7756 32.9889C34.3626 32.4958 33.6052 32.4984 33.1943 32.9888Z" fill="#0181F5"/>
</svg>
