<svg width="41" height="40" viewBox="0 0 41 40" fill="none" xmlns="http://www.w3.org/2000/svg">
<path fill-rule="evenodd" clip-rule="evenodd" d="M18.9519 22.6801C18.9519 22.3369 19.229 22.0605 19.573 22.0605H24.8588C25.2013 22.0605 25.4798 22.337 25.4798 22.6801C25.4798 23.0223 25.2013 23.2997 24.8588 23.2997H19.573C19.2291 23.2997 18.9519 23.0223 18.9519 22.6801ZM14.1232 32.3483C14.1232 32.6905 13.8451 32.9683 13.5021 32.9683H12.0763C11.7327 32.9683 11.4551 32.6905 11.4551 32.3483C11.4551 32.0055 11.7327 31.7286 12.0763 31.7286H13.5021C13.8451 31.7286 14.1232 32.0055 14.1232 32.3483ZM10.1503 32.3483C10.1503 32.6905 9.87228 32.9683 9.52914 32.9683H5.79741C5.45389 32.9683 5.17635 32.6905 5.17635 32.3483C5.17635 32.0055 5.45389 31.7286 5.79741 31.7286H9.52924C9.87228 31.7286 10.1503 32.0055 10.1503 32.3483ZM25.4799 32.3483C25.4799 32.6905 25.2014 32.9683 24.8588 32.9683H22.3057C21.9631 32.9683 21.6846 32.6905 21.6846 32.3483C21.6846 32.0055 21.9631 31.7286 22.3057 31.7286H24.8588C25.2014 31.7286 25.4799 32.0055 25.4799 32.3483ZM25.4799 27.5136C25.4799 27.8559 25.2014 28.1337 24.8588 28.1337H22.3057C21.9631 28.1337 21.6846 27.8559 21.6846 27.5136C21.6846 27.1714 21.9631 26.894 22.3057 26.894H24.8588C25.2014 26.894 25.4799 27.1714 25.4799 27.5136ZM17.9769 32.0031C17.6382 31.3385 17.1832 30.7808 16.6451 30.3747C17.1832 29.9681 17.6382 29.4104 17.9769 28.7458C18.3148 29.4104 18.7698 29.9681 19.3079 30.3747C18.7698 30.7809 18.3148 31.3385 17.9769 32.0031ZM20.8281 29.7797C19.6799 29.4418 18.7822 28.1305 18.5928 26.5164C18.5085 25.7915 17.4443 25.7927 17.3597 26.5164C17.1708 28.1305 16.2722 29.4418 15.1248 29.7797C14.5339 29.9536 14.5335 30.7955 15.1248 30.9693C16.273 31.3068 17.1708 32.6185 17.3597 34.2332C17.4444 34.9574 18.5085 34.9586 18.5928 34.2332C18.7821 32.6185 19.6798 31.3068 20.8281 30.9693C21.4194 30.7955 21.419 29.9533 20.8281 29.7797ZM1.8231 21.0124C2.25868 20.637 2.63208 20.1333 2.92152 19.5354C3.21048 20.1333 3.58387 20.6369 4.01994 21.0124C3.58387 21.3869 3.21048 21.891 2.92152 22.4893C2.63208 21.891 2.25868 21.3869 1.8231 21.0124ZM2.92152 25.4426C3.24035 25.4426 3.50802 25.2017 3.53926 24.885C3.70014 23.2769 4.47593 21.9254 5.42626 21.5984C5.98172 21.406 5.98172 20.6176 5.42626 20.4263C4.47583 20.0991 3.70004 18.7473 3.53926 17.1396C3.50792 16.8225 3.24035 16.5811 2.92152 16.5811C2.60269 16.5811 2.33502 16.8225 2.30329 17.1396C2.14241 18.7472 1.36662 20.0991 0.416778 20.4263C-0.138584 20.6174 -0.139268 21.4057 0.416778 21.5974C1.36672 21.9254 2.14251 23.2769 2.30329 24.885C2.33502 25.2018 2.60269 25.4426 2.92152 25.4426ZM37.9427 15.278C37.6314 14.6299 37.222 14.0855 36.7408 13.686C37.222 13.2879 37.6314 12.7431 37.9427 12.0945C38.254 12.7431 38.6634 13.288 39.1436 13.686C38.6634 14.0855 38.2539 14.6299 37.9427 15.278ZM40.5775 13.0986C39.5446 12.753 38.7336 11.3897 38.5604 9.70641C38.4841 8.9715 37.3996 8.97208 37.3244 9.70641C37.1507 11.3897 36.3398 12.753 35.3069 13.0986C34.7447 13.2873 34.7453 14.0865 35.3069 14.2744C36.3403 14.6199 37.1507 15.9837 37.3244 17.667C37.3999 18.4036 38.485 18.4035 38.5604 17.667C38.7336 15.9837 39.5446 14.6199 40.5775 14.2744C41.1399 14.0863 41.1418 13.2884 40.5775 13.0986ZM31.1362 34.2829V15.3106C33.4389 16.7748 34.6227 19.5141 34.9349 24.0206C35.2652 28.7946 33.9551 32.316 31.1362 34.2829ZM28.9939 38.7605C28.4976 38.7605 28.0944 38.3582 28.0944 37.8629V7.93935H29.8936V37.863C29.8935 38.3581 29.4902 38.7605 28.9939 38.7605ZM24.2201 36.1224C25.1487 36.1224 26.0308 36.0547 26.8516 35.9207V13.9852C26.1408 13.9085 25.3764 13.8697 24.528 13.8697H17.6414L17.8791 15.7423C17.9219 16.0818 17.6807 16.3918 17.3405 16.4349C17.0039 16.4772 16.6895 16.2414 16.6463 15.8976L16.3887 13.8696H11.3259L11.5636 15.7422C11.6068 16.0817 11.3653 16.3917 11.0251 16.4348C10.6849 16.4788 10.374 16.2374 10.3309 15.8975L10.0742 13.8771C8.28253 13.9883 6.85855 15.4775 6.85855 17.2934C6.85855 19.2139 8.39558 20.7419 10.29 20.7419H11.6114C13.3627 20.7419 14.7871 22.1635 14.7871 23.9107V24.0858C14.7871 25.8335 13.3627 27.255 11.6114 27.255H6.85425C4.4277 27.255 2.45382 29.2242 2.45382 31.645V31.7321C2.45382 34.1529 4.4277 36.1221 6.85425 36.1221H24.2201V36.1224ZM15.7198 8.59635L15.8968 9.99274H10.834L10.6566 8.59635H15.7198ZM16.0543 11.2325L16.2313 12.6299H11.1685L10.991 11.2325H16.0543ZM21.6058 5.87397L21.556 5.3499H36.0333L35.9826 5.87397C35.938 6.34446 35.547 6.69955 35.0734 6.69955H22.5154C22.0413 6.69955 21.6509 6.34456 21.6058 5.87397ZM36.4248 1.23969L36.1511 4.1107H21.4377L21.1635 1.23969H36.4248ZM31.1362 13.8849V7.93935H35.0734C36.1904 7.93935 37.1132 7.10197 37.2195 5.99142L37.7273 0.678818C37.7619 0.315548 37.4743 0 37.1085 0H20.4803C20.1144 0 19.8269 0.315743 19.8611 0.678818L20.3693 5.99142C20.4751 7.10197 21.398 7.93935 22.5154 7.93935H26.8517V12.7384C26.1352 12.6655 25.3684 12.63 24.5281 12.63H17.4839L17.2177 10.5353V10.5343L16.8842 7.90623C16.8842 7.90058 16.8832 7.89484 16.8823 7.88968L16.6066 5.71502C16.4418 4.41553 15.2453 3.49012 13.9429 3.65442C12.9312 3.78268 12.1137 4.53961 11.9073 5.53797C11.838 5.87358 12.0539 6.20159 12.3903 6.27025C12.7267 6.3394 13.0546 6.12397 13.1243 5.78836C13.2949 4.96121 14.2694 4.59726 14.9401 5.11568C15.1817 5.30316 15.3359 5.57108 15.3739 5.87065L15.5623 7.35656H10.5L10.2912 5.71493C10.1264 4.41417 8.92888 3.49012 7.62789 3.65432C6.61586 3.78258 5.79829 4.53951 5.59192 5.53836C5.5231 5.87348 5.73952 6.20159 6.07592 6.27015C6.41135 6.3393 6.74023 6.12387 6.80944 5.78826C6.9795 4.96316 7.95346 4.596 8.6243 5.11558C8.8663 5.30306 9.02054 5.57098 9.05852 5.87056L9.33468 8.0457C9.33517 8.05134 9.33605 8.05807 9.33703 8.06371L9.66913 10.6829L9.91826 12.6465C7.5084 12.8363 5.61613 14.8426 5.61613 17.3181C5.61613 19.889 7.71331 21.9818 10.2903 21.9818H11.6117C12.6778 21.9818 13.5451 22.8471 13.5451 23.9108V24.0859C13.5451 25.1491 12.6778 26.0153 11.6117 26.0153H6.85454C3.7429 26.0153 1.2115 28.5407 1.2115 31.6451V31.7322C1.2115 34.8365 3.7429 37.362 6.85454 37.362H24.2201C25.1406 37.362 26.0227 37.299 26.8516 37.1759V37.8627C26.8516 39.041 27.8124 40 28.9938 40C30.1753 40 31.1361 39.041 31.1361 37.8627V35.7506C34.822 33.6332 36.5633 29.5575 36.1737 23.9343C35.8037 18.5826 34.2441 15.4602 31.1362 13.8849Z" fill="#0181F5"/>
</svg>
